# xmcd CD database file
#
# Track frame offsets:
#	151
#	15252
#	67136
#	79806
#	95465
#	119053
#	137976
#	150139
#	164079
#	179223
#	191656
#	203527
#	216667
#	240805
#	252955
#	267167
#	282758
#	297608
#	310125
#	324438
#
# Disc length: 4518 seconds
#
# Revision: 0
# Processed by: cddbd v1.5.1PL2 Copyright (c) Steve Scherf et al.
# Submitted via: CDex 1.70beta2
#
DISCID=2d11a414
DTITLE=Various Artist - History of Jazz
DYEAR=1952
DGENRE=Jazz
TTITLE0=PETITE FLEUR (Bechet) Sidney Bechet with Claude Luter Orchestra - Jan 31
TTITLE1=THE CHASE (Gordon) Dexter Gordon and Wardell Gray - Feb 2
TTITLE2=JOHNNY COME LATELY (Strayhorn) Louie Bellson Just Jazz All Stars - Feb
TTITLE3=WOODYN' YOU (Gillespie) Miles Davis Sextet - May 9
TTITLE4=IF YOU CAN'T SING IT YOU'LL HAVE TO SWING IT (Coslow) Ella Fitzgerald acc by Sy Oliver Orchestra - Jun 26
TTITLE5=OUT OF NOWHERE (Green-Heyman) Mary Lou Williams and Her Orchestra - Jul 11
TTITLE6=LULLABY OF BIRDLAND (Shearing) George Shearing Quintet - Jul 17
TTITLE7=SOMEBODY LOVES ME (Gershwin-DeSylva-MacDonald) Nat King Cole with Jack Costanzo - Jul 18
TTITLE8=OOH-SHOO-BE-DOO-BEE (Carroll-Graham) Dizzy Gillespie Quintet - Jul 18
TTITLE9=PORT OF RICO (Jacquet) Illinois Jacquet featuring Count Basie - Jul 21
TTITLE10=MY MAN (Willemetz-Charles-Pollock-Yvain) Billie Holiday and Her Lads of Joy - Jul 27
TTITLE11=BERNIE'S TUNE (Miller) Gerry Mulligan Quartet with Chet Baker - Aug 16
TTITLE12=CHEEK TO CHEEK (Berlin) Oscar Petrson Trio - Sep 13
TTITLE13=TWISTED (Ross-Gray) Annie Ross and Quartet - Oct 9
TTITLE14=MONK'S DREAM )Monk) Thelonious Monk Trio - Oct 15
TTITLE15=ON THE SUNNY SIDE OF THE STREET (McHugh-Fields) Lester Young with The Oscar Petrson Trio - Nov 28
TTITLE16=RED TOP (Hampton-Kynard) King Pleasure and Betty Carter - Dec 12
TTITLE17=STELLA BY STARLIGHT (Washington-Young) Stan Getz Quintet - Dec 12
TTITLE18=TEA FOR TWO (Caesar-Youmans) Art Tatum Trio - Dec 20
TTITLE19=VENDOME (Lewis) The Modern Jazz Quartet - Dec 22
EXTD=YEAR: 1952
EXTT0=
EXTT1=
EXTT2=
EXTT3=
EXTT4=
EXTT5=
EXTT6=
EXTT7=
EXTT8=
EXTT9=
EXTT10=
EXTT11=
EXTT12=
EXTT13=
EXTT14=
EXTT15=
EXTT16=
EXTT17=
EXTT18=
EXTT19=
PLAYORDER=
